<svg version="1.1" id="Ebene_1" xmlns="http://www.w3.org/2000/svg" xmlns:xlink="http://www.w3.org/1999/xlink" x="0px" y="0px" viewBox="0 0 800 297.5" style="enable-background:new 0 0 800 297.5;" xml:space="preserve">
<style type="text/css">
	.st0{fill:#FFFFFF;}
</style>
<g>
	<path class="st0" d="M123.9,64.4H27c-2.7,0-4.9-2.2-4.9-4.9V15.1c0-2.7,2.2-4.9,4.9-4.9h96.9c2.7,0,4.9,2.2,4.9,4.9v44.5
		C128.8,62.2,126.6,64.4,123.9,64.4z"></path>
</g>
<g>
	<path class="st0" d="M123.9,292.8H27c-2.7,0-4.9-2.2-4.9-4.9v-44.5c0-2.7,2.2-4.9,4.9-4.9h96.9c2.7,0,4.9,2.2,4.9,4.9V288
		C128.8,290.6,126.6,292.8,123.9,292.8z"></path>
</g>
<g>
	<path class="st0" d="M181.5,121.9H84.6c-2.7,0-4.9-2.2-4.9-4.9V72.6c0-2.7,2.2-4.9,4.9-4.9h96.9c2.7,0,4.9,2.2,4.9,4.9V117
		C186.3,119.7,184.2,121.9,181.5,121.9z"></path>
</g>
<path class="st0" d="M545.4,214.6l-30.9-65.3c-0.1-0.4-0.4-0.6-0.8-0.6h-35.8c-0.6,0-0.8,0.3-0.8,0.8v64.4c0,1.4-0.7,2.1-2.1,2.1
	h-10.7c-1.4,0-2.1-0.7-2.1-2.1V70.8c0-1.4,0.7-2.1,2.1-2.1h54.5c12.1,0,21.8,3.8,29.3,11.3c7.4,7.5,11.2,17.3,11.2,29.4
	c0,9.8-2.7,18.2-8,25.1c-5.3,6.9-12.6,11.3-21.7,13.3c-0.6,0.3-0.7,0.6-0.4,1.1l31.6,64.8c0.1,0.3,0.2,0.6,0.2,1.1
	c0,1-0.6,1.5-1.7,1.5h-11.2C546.7,216,545.8,215.6,545.4,214.6z M477,82.6v53.3c0,0.6,0.3,0.8,0.8,0.8H517c8.1,0,14.7-2.5,19.8-7.6
	c5.1-5.1,7.6-11.6,7.6-19.8c0-8.1-2.5-14.8-7.6-19.9s-11.6-7.7-19.8-7.7h-39.2C477.3,81.7,477,82,477,82.6z"></path>
<path class="st0" d="M759.7,140.4c-3.2-4.4-7.5-8.1-12.7-11.1c-5.1-2.9-11.8-6.2-20.1-9.6c-8.1-3.1-14.1-5.7-17.9-7.6
	c-3.7-1.9-6.5-4-8.5-6.5c-1.9-2.3-2.8-5.4-2.8-9.1c0-5.7,1.9-10,5.8-12.9c4-3,9.9-4.6,17.5-4.6c8.7,0,15.6,2,20.4,5.9
	c4.8,3.9,7.1,8.7,7.1,14.8v3c0,2,1.2,3.2,3.2,3.2h8.5c2,0,3.2-1.3,3.2-3.2V99c0-10.1-3.8-18.4-11.4-24.5c-7.5-6.1-17.8-9.1-30.6-9.1
	c-11.8,0-21.3,2.8-28.2,8.2c-7,5.5-10.5,13.3-10.5,23.2c0,6.4,1.6,11.8,4.6,16s7,7.6,11.9,10.2c4.7,2.5,11.4,5.6,19.9,8.9
	c7.8,3.2,13.9,6.1,18.2,8.5c4.1,2.4,7.2,4.9,9.2,7.5c1.9,2.5,2.8,5.6,2.8,9.2c0,5.6-2,10-6.2,13.4s-10.5,5.1-18.8,5.1
	c-9.2,0-16.5-1.9-21.6-5.7c-5-3.7-7.5-8.5-7.5-14.5V151c0-2-1.3-3.2-3.2-3.2h-8.3c-2,0-3.2,1.3-3.2,3.2v5.2c0,10,3.9,18.2,11.7,24.2
	c7.6,5.9,18.1,8.9,31.2,8.9c12.7,0,22.9-3,30.1-8.8c7.4-5.9,11.1-13.9,11.1-23.8C764.6,150.4,763,144.9,759.7,140.4z"></path>
<path class="st0" d="M780.1,187.7V98c0-1,0.7-1.6,2.1-1.6h10.7c1.4,0,2.1,0.5,2.1,1.6v89.7c0,1-0.7,1.6-2.1,1.6h-10.7
	C780.8,189.3,780.1,188.8,780.1,187.7z"></path>
<path class="st0" d="M590.9,210.8c-7.6-4.1-13.4-9.8-17.6-17.2c-4.1-7.4-6.2-15.9-6.2-25.7v-14.6c0-9.7,2.1-18.3,6.2-25.7
	c4.1-7.4,10-13.1,17.6-17.2s16.3-6.1,26.3-6.1s18.8,2,26.4,6.1c7.6,4.1,13.5,9.8,17.7,17.2c4.1,7.4,6.2,15.9,6.2,25.7v14.6
	c0,9.7-2.1,18.3-6.2,25.7c-4.1,7.4-10,13.1-17.7,17.2c-7.7,4.1-16.5,6.1-26.4,6.1C607.2,216.9,598.5,214.9,590.9,210.8z
	 M642.9,194.3c6.5-6.5,9.7-15.1,9.7-25.8V153c0-10.7-3.2-19.3-9.7-25.9c-6.5-6.5-15-9.8-25.7-9.8c-10.5,0-19,3.3-25.5,9.8
	c-6.5,6.5-9.7,15.2-9.7,25.9v15.5c0,10.7,3.2,19.3,9.7,25.8s14.9,9.7,25.5,9.7C627.9,204.1,636.4,200.8,642.9,194.3z"></path>
<g>
	<path class="st0" d="M793.6,87.3h-12.1c-0.8,0-1.4-0.6-1.4-1.4V67.3c0-0.8,0.6-1.4,1.4-1.4h12.1c0.8,0,1.4,0.6,1.4,1.4v18.6
		C795,86.7,794.4,87.3,793.6,87.3z"></path>
</g>
<path class="st0" d="M358.6,186.8c-7.7-4.2-13.7-10-17.9-17.5c-4.2-7.5-6.3-16.2-6.3-26.1v-0.5c0-9.9,2.1-18.6,6.3-26.1
	c4.2-7.5,10.2-13.4,17.9-17.5c7.7-4.2,16.6-6.2,26.8-6.2c10.1,0,19.1,2.1,26.9,6.2c7.8,4.2,13.8,10,18,17.5s6.3,16.2,6.3,26.1v0.5
	c0,9.9-2.1,18.6-6.3,26.1c-4.2,7.5-10.2,13.4-18,17.5c-7.8,4.2-16.7,6.2-26.9,6.2C375.2,193.1,366.3,191,358.6,186.8z M411.5,170.1
	c6.6-6.6,9.9-15.3,9.9-26.2v-1.4c0-10.9-3.3-19.7-9.9-26.3c-6.6-6.7-15.3-10-26.1-10c-10.7,0-19.4,3.3-25.9,10
	c-6.6,6.7-9.9,15.4-9.9,26.3v1.4c0,10.9,3.3,19.6,9.9,26.2c6.6,6.6,15.2,9.9,25.9,9.9C396.2,180,404.9,176.7,411.5,170.1z"></path>
<g>
	<path class="st0" d="M44.7,179.9c7.3,3.4,10.9,9.3,10.9,17.6c0,6.8-2.3,11.9-6.8,15.4s-10.4,5.3-17.7,5.3H4.3
		c-0.4,0-0.7-0.1-0.9-0.4C3.1,217.6,3,217.3,3,217v-72.1c0-0.4,0.1-0.7,0.4-0.9c0.2-0.2,0.6-0.4,0.9-0.4h26c7.8,0,13.7,1.7,17.9,5
		s6.3,8.4,6.3,15.2c0,7.5-3.3,12.7-9.8,15.6C44.3,179.5,44.3,179.7,44.7,179.9z M15.4,154.8v19.7c0,0.4,0.2,0.5,0.5,0.5h14.4
		c3.8,0,6.7-0.9,8.9-2.7c2.2-1.8,3.3-4.3,3.3-7.5c0-3.3-1.1-5.9-3.3-7.7c-2.2-1.9-5.1-2.8-8.9-2.8H15.9
		C15.6,154.2,15.4,154.4,15.4,154.8z M40,204.5c2.2-2,3.3-4.7,3.3-8.1c0-3.5-1.1-6.2-3.3-8.2s-5.2-2.9-9-2.9H16
		c-0.4,0-0.5,0.2-0.5,0.5v21.1c0,0.4,0.2,0.5,0.5,0.5h15.3C34.9,207.5,37.8,206.5,40,204.5z"></path>
	<path class="st0" d="M109.8,217.3l-14.1-30.7c-0.1-0.3-0.4-0.4-0.6-0.4H82.3c-0.4,0-0.5,0.2-0.5,0.5V217c0,0.4-0.1,0.7-0.4,0.9
		s-0.6,0.4-0.9,0.4h-9.8c-0.4,0-0.7-0.1-0.9-0.4c-0.3-0.2-0.4-0.6-0.4-0.9v-72.1c0-0.4,0.1-0.7,0.4-0.9c0.2-0.2,0.6-0.4,0.9-0.4H100
		c4.3,0,8.2,0.9,11.5,2.7s5.9,4.4,7.8,7.7c1.8,3.3,2.8,7.1,2.8,11.4c0,4.9-1.3,9.1-3.8,12.5c-2.5,3.5-6,5.9-10.5,7.2
		c-0.1,0-0.3,0.1-0.3,0.2c-0.1,0.1-0.1,0.3,0,0.4l15,31.1c0.1,0.3,0.2,0.5,0.2,0.6c0,0.6-0.4,0.9-1.2,0.9h-10.2
		C110.6,218.3,110.1,217.9,109.8,217.3z M81.8,154.8V176c0,0.4,0.2,0.5,0.5,0.5h16c3.4,0,6.2-1,8.3-3c2.1-2,3.1-4.7,3.1-8.1
		c0-3.3-1.1-6-3.1-8.1c-2.1-2.1-4.9-3.1-8.3-3.1h-16C81.9,154.2,81.8,154.4,81.8,154.8z"></path>
	<path class="st0" d="M145.7,216c-4.1-2.1-7.2-5.1-9.4-8.9c-2.2-3.8-3.3-8.3-3.3-13.2V168c0-5.1,1.1-9.5,3.3-13.3s5.3-6.8,9.4-8.9
		c4.1-2.1,8.8-3.1,14.1-3.1s9.9,1,13.9,3.1s7.1,4.9,9.3,8.4c2.2,3.6,3.3,7.6,3.3,12.1v0.9c0,0.4-0.1,0.7-0.4,0.9
		c-0.3,0.3-0.6,0.4-0.9,0.4h-9.7c-0.4,0-0.7-0.1-0.9-0.4c-0.2-0.2-0.4-0.6-0.4-0.9v-0.5c0-3.8-1.3-7-3.9-9.5
		c-2.6-2.5-6.1-3.7-10.4-3.7c-4.3,0-7.8,1.3-10.5,3.9c-2.6,2.6-3.9,6-3.9,10.3v26.7c0,4.3,1.4,7.7,4.2,10.3s6.4,3.9,10.8,3.9
		c4.3,0,7.6-1.1,10.1-3.4c2.5-2.2,3.7-5.3,3.7-9.2v-6.6c0-0.4-0.2-0.5-0.5-0.5h-13.1c-0.4,0-0.7-0.1-0.9-0.4
		c-0.3-0.2-0.4-0.6-0.4-0.9v-7.9c0-0.4,0.1-0.7,0.4-0.9c0.2-0.2,0.6-0.4,0.9-0.4h24.7c0.4,0,0.7,0.1,0.9,0.4
		c0.2,0.3,0.4,0.6,0.4,0.9v13.7c0,8.2-2.4,14.6-7.2,19.1c-4.8,4.6-11.3,6.8-19.4,6.8C154.4,219.1,149.7,218.1,145.7,216z"></path>
</g>
<g>
	<path class="st0" d="M329.4,68c-0.2-0.6-0.7-0.9-1.6-0.9h-12.4c-1.1,0-2,0.4-2.6,1.1l-49,53.6l-2.2,2.4L245,142.3
		c-0.1,0.3-0.4,0.4-0.6,0.2c-0.3-0.1-0.4-0.4-0.4-0.6V69.3c0-1.2-1-2.1-2.1-2.1H231c-1.2,0-2.1,1-2.1,2.1V215c0,1.2,1,2.1,2.1,2.1
		h10.9c1.2,0,2.1-1,2.1-2.1v-51.2c0-0.4,0.1-0.8,0.4-1.1l25.6-27.2l9.6-10.1l49.2-55.6C329.4,69.1,329.6,68.6,329.4,68z"></path>
	<line class="st0" x1="279.7" y1="125.3" x2="279.6" y2="125.4"></line>
	<path class="st0" d="M433.5,204.2h-68.9c-13.5,0-25-3.1-34.7-7.5c-4.2-2.4-8.4-5.5-12.3-9.6c-2.5-2.6-43.8-60.1-43.8-60.1
		l-10.8,8.5c0,0,41.7,58,44.5,61c3.6,3.9,7.5,7,11.4,9.6c13.5,8.9,27.8,11.1,36.2,11.4c0,0,6.3,0,9.6,0h68.9c1,0,1.8-0.8,1.8-1.8
		V206C435.4,205,434.6,204.2,433.5,204.2z"></path>
</g>
<path class="st0" d="M342.9,85.3c-1.8-5.2-1.2-5.9,3.2-7.6c23.4-8.8,43.4-11.9,60-7.9c8.4,2.1,14,5.6,18.6,8c5.1,2.7,5,3.3,2.1,8
	c-2.7,4.4-3.3,4.7-8,2.1c-4.3-2.4-8.7-5.1-15.5-6.8c-14.2-3.5-31.9-0.8-52.9,7.4C345.9,90.4,344.9,91,342.9,85.3z"></path>
<path class="st0" d="M576.2,73.7c-1.9,5.2-1.2,5.9,3.2,7.6c23.4,8.9,43.4,12.1,59.9,8.1c8.4-2,14-5.5,18.6-8c5.1-2.7,5-3.3,2.1-8
	c-2.7-4.4-3.3-4.7-8-2.1c-4.3,2.4-8.7,5.1-15.5,6.7c-14.2,3.4-31.9,0.6-52.9-7.6C579.3,68.7,578.3,68.1,576.2,73.7z"></path>
<g>
	<path class="st0" d="M791.7,217.6H683.1c-1.8,0-3.3-1.5-3.3-3.3V206c0-1.8,1.5-3.3,3.3-3.3h108.6c1.8,0,3.3,1.5,3.3,3.3v8.3
		C795,216.1,793.5,217.6,791.7,217.6z"></path>
</g>
</svg>
